<svg width="504" height="94" viewBox="0 0 504 94" fill="none" xmlns="http://www.w3.org/2000/svg">
<rect x="1" y="1" width="502" height="92" rx="6" fill="white"/>
<rect x="1" y="1" width="502" height="92" rx="6" stroke="black" stroke-width="2"/>
<circle cx="47" cy="47" r="25" fill="#F24822"/>
<path d="M462.833 36.8865C468.324 36.8865 471.773 40.343 472.614 45.2768C473.415 49.9817 469.325 52.639 464.474 53.6124C460.486 54.4123 457.543 48.9304 457.366 46.2091C457.288 45.0174 455.834 43.4537 456.394 42.3155C457.545 39.9783 462.702 38.8036 465.02 37.8736M97.6218 49.7182C189.598 49.7182 281.379 44.7827 373.354 44.7827H452.994M82 47.956C82.4929 44.3964 87.5021 52.6529 87.7016 53.1031M178.754 45.2635C175.657 48.9184 175.683 51.2945 179.613 51.1983M179.613 51.1983C180.373 51.1797 181.279 51.0686 182.337 50.8564C184.796 50.363 182.63 45.485 180.06 46.6449C176.183 48.3947 178.23 50.4781 180.107 50.2432M179.613 51.1983C179.735 50.9034 179.908 50.5755 180.107 50.2432M179.613 51.1983C179.495 51.4831 179.425 51.7371 179.425 51.9346M180.107 50.2432C180.733 50.1649 181.339 49.8292 181.702 49.1381C183.118 46.4391 181.208 48.4089 180.107 50.2432ZM280.197 42.2312C279.755 42.5549 278.953 43.1872 277.988 44.0034M277.988 44.0034C276.481 45.2768 274.576 46.9981 273.02 48.6949M277.988 44.0034C279.702 43.499 280.83 44.0038 281.561 45.0091M277.988 44.0034C277.483 44.1519 276.927 44.3879 276.315 44.7244C274.787 45.5653 273.559 47.0551 273.02 48.6949M273.02 48.6949C270.204 51.7655 268.531 54.7558 272.434 54.8659C277.11 54.9978 282.314 55.8436 282.776 51.275M273.02 48.6949C272.587 50.0112 272.598 51.4243 273.255 52.6758C274.592 55.2237 278.295 53.3135 280.452 52.0745M282.776 51.275C282.798 51.0581 282.81 50.8289 282.81 50.5869C282.81 50.4811 282.809 50.3743 282.807 50.2666M282.776 51.275C282.345 52.1651 281.743 52.9294 281.055 53.3834C280.337 53.857 280.245 53.0498 280.452 52.0745M282.776 51.275C283.678 49.415 283.841 47.0063 282.511 45.7352C282.175 45.4142 281.859 45.176 281.561 45.0091M282.807 50.2666C282.802 49.9513 282.79 49.6288 282.769 49.3045M282.807 50.2666C282.542 50.6769 282.064 51.1477 281.391 51.5303C281.134 51.6764 280.815 51.8659 280.452 52.0745M282.807 50.2666C283.135 49.7583 283.135 49.3431 282.769 49.3045M282.769 49.3045C282.664 47.7143 282.337 46.0785 281.561 45.0091M282.769 49.3045C282.525 49.2788 282.119 49.42 281.541 49.812C281.095 50.1136 280.644 51.1668 280.452 52.0745M281.561 45.0091C279.299 43.7429 278.094 46.5879 277.474 48.5505M277.474 48.5505C277.146 49.5926 276.982 50.3859 276.913 50.1826C276.05 47.6514 275.685 48.0724 277.474 48.5505ZM277.474 48.5505C277.976 48.6845 278.648 48.8231 279.525 48.9023M386.342 40.4125C385.248 40.7989 384.229 41.5478 383.313 42.3991M383.313 42.3991C383.247 42.4598 383.183 42.521 383.118 42.5826M383.313 42.3991C384.441 37.7703 393.961 38.9293 396.452 42.2826M383.313 42.3991C383.247 42.6686 383.21 42.9577 383.204 43.2671M383.118 42.5826C382.245 43.4203 381.47 44.3369 380.818 45.0958C377.373 49.1066 376.755 51.5761 382.647 53.0472C383.939 53.3699 385.368 53.6677 386.818 53.8742M383.118 42.5826C383.065 41.0003 383.99 39.2154 386.416 37.4139C391.37 33.7354 394.656 37.9031 396.452 42.2826M383.118 42.5826C383.126 42.8153 383.155 43.0437 383.204 43.2671M386.818 53.8742C392.879 54.7367 399.327 54.0035 397.837 46.8141C397.659 45.9568 397.396 44.9448 397.046 43.8894M386.818 53.8742C387.089 52.0919 387.536 49.1574 387.237 49.5769C384.444 53.4992 383.791 50.2522 384.719 46.8568M386.818 53.8742C386.728 54.4648 386.658 54.9288 386.64 55.1024C386.314 58.2976 386.279 57.6873 388.357 58M397.046 43.8894C396.87 43.36 396.672 42.8197 396.452 42.2826M397.046 43.8894C397.063 44.5628 396.805 45.2855 396.195 46.0392C394.22 48.4791 390.397 48.6224 387.392 47.4203M397.046 43.8894C397.032 43.3141 396.818 42.7748 396.452 42.2826M383.204 43.2671C383.43 44.3075 384.08 45.24 384.985 46.0047M383.204 43.2671C383.192 43.8927 383.309 44.6014 383.58 45.399C383.802 46.054 384.207 46.5303 384.719 46.8568M384.985 46.0047C385.666 46.5801 386.492 47.0605 387.392 47.4203M384.985 46.0047C385.518 44.4921 386.361 43.068 387.461 42.3667C390.427 40.4767 393.237 44.3973 390.41 46.4098C389.636 46.9602 388.514 47.3424 387.392 47.4203M384.985 46.0047C384.886 46.287 384.797 46.5724 384.719 46.8568M387.392 47.4203C386.425 47.4874 385.46 47.3286 384.719 46.8568M473.004 36.1667C472.702 36.46 470.899 37.9697 468.788 39.9746M468.788 39.9746C466.297 42.3416 463.378 45.3987 461.997 47.9589M468.788 39.9746C470.95 39.7876 472.95 40.8602 473.702 44.1385M468.788 39.9746C464.786 40.3206 460.227 44.9844 461.997 47.9589M461.997 47.9589C460.788 50.2001 460.758 52.0604 463.225 52.7434C466.614 53.6817 469.923 52.4261 471.928 50.2261M461.997 47.9589C462.763 49.2468 464.715 50.2181 468.413 50.385C469.569 50.4371 470.8 50.3926 471.928 50.2261M471.928 50.2261C473.436 48.5701 474.205 46.3789 473.713 44.1855C473.709 44.1698 473.706 44.1541 473.702 44.1385M471.928 50.2261C475.419 49.7105 477.912 48.0253 474.049 44.4214C473.944 44.3236 473.828 44.2292 473.702 44.1385M473.702 44.1385C471.357 42.4472 465.658 42.082 467.181 46.2071C467.281 46.4766 467.825 46.108 468.077 45.9375C468.742 45.4877 467.265 47.3499 467.368 48.0939C467.683 50.3666 470.868 48.2001 471.66 47.6896" stroke="#1E1E1E" stroke-width="3" stroke-linecap="round" stroke-linejoin="round"/>
<circle cx="279.5" cy="46.5" r="7.5" fill="#F24822"/>
</svg>
