<svg width="94" height="112" viewBox="0 0 94 112" fill="none" xmlns="http://www.w3.org/2000/svg">
<path d="M40.7271 52.9682C39.5955 52.0423 35.9939 50.8412 38.79 49.2878C50.8105 42.6097 58.1333 52.9601 57.9184 64.2031C57.8388 68.3707 53.522 92.3878 44.1653 86.2856C32.1073 78.4217 34.4694 52.4638 41.9861 42.7018C50.3927 31.7842 63.4197 36.5421 66.1994 49.0941C67.7165 55.945 67.0422 64.0483 61.5504 69.0458C56.3919 73.74 44.1829 77.0904 38.451 71.5155C32.5411 65.7675 28.7292 44.7457 36.3202 39.0214C48.0359 30.1866 54.0685 61.3219 52.2526 67.9804C50.1866 75.5557 42.4893 83.3143 37.7246 72.7262C31.5648 59.0377 46.2089 40.9342 60.9209 43.1861C74.5451 45.2714 69.7973 67.1952 62.7127 73.2105C53.3573 81.1537 36.2233 84.1755 33.6568 68.8521C32.3811 61.2353 34.6466 44.069 44.7949 43.0892C61.4494 41.4812 51.5921 68.4978 45.715 74.179C37.6465 81.9785 27.9491 77.169 25.8117 67.1572C22.781 52.9607 32.2104 41.9897 45.4728 37.956C58.4753 34.0013 63.0702 48.071 62.0347 58.5857C61.2813 66.2354 52.5076 81.5931 42.5188 76.4066C34.0109 71.989 33.7314 55.9104 36.3202 48.2224C40.1058 36.9804 53.1472 30.1904 59.5165 43.864C63.4553 52.3197 62.5297 63.9193 52.1557 66.3339C42.5193 68.5769 37.9822 57.8258 36.9982 50.2563C36.1915 44.0508 35.2915 32.826 40.7755 28.1254C48.2531 21.716 51.6252 50.9541 51.4777 53.743C51.2271 58.4836 45.8789 68.4194 39.468 66.5276C33.1521 64.6639 31.5917 50.6086 31.8166 45.5105C32.102 39.0408 38.1691 35.886 44.3106 37.0843C58.2196 39.7983 59.6619 59.4221 51.4777 68.4647C35.895 85.6819 17.4692 55.6888 27.7488 41.2974C35.4193 30.5587 56.697 36.0135 65.5214 42.4112C70.8194 46.2523 70.5358 56.8535 70.364 62.7503C69.8721 79.6403 45.3068 82.7266 32.543 79.9417C17.9874 76.766 19.3293 56.1572 21.0659 44.3483C23.2501 29.4958 37 31.198 48.4753 32.048C57.716 32.7325 63.8569 34.895 71.2357 40.571C77.3168 45.2488 77.3375 52.2305 77.3375 59.2152C77.3375 65.0711 78.4848 71.9931 71.4294 73.4042C63.4231 75.0054 47.6931 77.3953 41.9377 69.869C34.7898 60.5218 37.7804 44.6847 41.5987 34.5661C43.1855 30.3611 54.2435 29.7328 58.0153 29.4814C65.873 28.9575 65.768 45.7166 64.7466 50.6437C63.3178 57.5355 55.3753 59.2003 49.8312 55.8738C41.3252 50.7702 39.2346 45.6279 42.4704 35.8252C45.1077 27.8357 46.9289 28.7887 53.3179 30.6436C58.3556 32.1062 59.8127 32.3376 59.9039 38.634C59.9358 40.8346 60.6434 44.831 59.1291 46.6728C54.5914 52.1916 48.9323 47.601 46.5382 42.8955C44.7353 39.3518 39.9779 28.5613 46.8288 28.5613" stroke="#FFEC8A" stroke-width="10" stroke-linecap="round"/>
<path d="M59.9038 47.7381C60.3292 44.3355 61.6472 54.1946 61.6472 50.3531" stroke="black" stroke-width="3" stroke-linecap="round"/>
<path d="M37.2403 52.0965C37.2403 53.6913 37.7582 53.7924 38.9836 54.7116" stroke="black" stroke-width="3" stroke-linecap="round"/>
<path d="M50.3156 66.9151C50.9859 67.5854 54.6868 71.7676 55.4488 69.4817C56.2389 67.1114 56.9352 64.1614 57.289 61.685" stroke="black" stroke-width="3" stroke-linecap="round"/>
<path d="M47.7006 88.7069C47.273 95.9757 45.9572 103.208 45.9572 110.499" stroke="black" stroke-width="3" stroke-linecap="round"/>
<path d="M62.5192 87.8353V102.654" stroke="black" stroke-width="3" stroke-linecap="round"/>
<path d="M79.0808 45.1231C81.5908 41.0443 88.2307 38.4786 92.156 35.5346" stroke="black" stroke-width="3" stroke-linecap="round"/>
<path d="M1.50165 50.3532C2.5096 52.8731 7.2079 53.2857 9.34674 54.7116" stroke="black" stroke-width="3" stroke-linecap="round"/>
<path d="M14.5768 50.3531C18.5348 51.0128 21.812 62.1328 19.3226 64.9779C16.7889 67.8735 11.9618 60.4485 11.9618 58.1498C11.9618 56.7606 13.2087 50.2998 15.8843 51.3701C19.481 52.8088 13.9968 60.8981 12.9303 62.0239C9.3393 65.8144 8.3394 53.0035 9.92787 50.8374C11.1257 49.204 14.8244 47.8809 16.6107 49.1909C19.2787 51.1474 17.9553 58.4679 17.0466 60.9101C16.1293 63.3753 13.552 65.4744 11.5744 62.7987C9.36491 59.8095 9.87224 54.3508 11.1385 51.0795C11.7627 49.4672 13.0941 48.2534 14.9158 48.6582C15.9714 48.8928 15.4485 52.1457 15.4485 52.9197C15.4485 53.5307 15.2172 56.2751 14.0925 54.5178C12.5518 52.1104 14.3535 46.5285 14.7705 44.1545C17.2848 29.8425 21.2727 18.6385 32.204 8.51267C41.5721 -0.165072 58.5967 -1.85719 66.8774 9.57805C71.6424 16.1583 77.8231 23.7481 78.2092 32.2416C78.455 37.6487 79.0809 43.03 79.0809 48.6098" stroke="black" stroke-width="3" stroke-linecap="round"/>
<path d="M34.6253 24.2029C46.6453 18.1929 57.9514 19.238 66.6352 29.5299C74.6054 38.976 81.1874 50.9197 80.8242 63.8158C80.5038 75.1902 68.0705 84.698 57.531 85.6561C51.8709 86.1707 46.2099 86.092 40.5334 86.092C36.2327 86.092 30.3598 87.1953 26.5865 84.6392C19.8167 80.0531 14.1334 72.7059 13.7535 64.3485C13.4278 57.1822 11.8877 46.422 14.5768 39.6994C16.403 35.1338 19.9741 31.2877 23.6809 28.1739C27.4303 25.0245 31.6895 25.9463 36.3687 25.9463" stroke="black" stroke-width="3" stroke-linecap="round"/>
</svg>
