<svg width="31" height="29" viewBox="0 0 31 29" fill="none" xmlns="http://www.w3.org/2000/svg">
<path d="M1.59804 8.9752C1.16624 8.74447 2.95219 6.52058 3.1481 6.11794C3.56813 5.2547 4.13711 2.00062 5.20284 1.65549C8.4337 0.609169 13.7933 13.3719 18.3964 10.9656C19.3525 10.4658 18.7215 0.307652 20.4512 1.65549C22.0778 2.92306 24.4645 10.6664 25.7502 10.7088C28.88 10.8121 31.158 9.95867 26.6154 12.6993C25.2475 13.5245 21.2451 15.183 22.9385 17.1938C25.1285 19.7944 29.1088 20.9391 23.8036 22.5873C20.5506 23.5979 17.6461 24.8733 14.6474 26.3756C12.9723 27.2147 12.7228 27.1371 14.5753 27.4671" stroke="#1E1E1E" stroke-width="3" stroke-linecap="round" stroke-linejoin="round"/>
</svg>
