<svg width="59" height="30" viewBox="0 0 59 30" fill="none" xmlns="http://www.w3.org/2000/svg">
<path d="M1.50408 6.90464C1.70167 5.32094 5.20825 5.40586 6.45704 5.17172C11.045 4.31151 15.3448 3.15864 19.83 2.05248C24.1452 0.988244 29.6685 1.80042 34.0521 1.80042C38.9107 1.80042 43.7693 1.80042 48.628 1.80042C57.907 1.80042 59.6574 19.1579 55.0314 23.7927C53.3198 25.5076 49.2048 23.8946 48.3095 22.1228C47.2713 20.0681 46.5965 17.8297 45.9392 15.6637C45.1592 13.0936 43.2659 19.0617 42.8967 19.8227C42.5107 20.6183 39.9608 29.4522 37.8022 27.6366C36.5738 26.6033 34.6182 23.3772 34.6182 21.9337C34.6182 19.8508 31.5481 12.5803 30.7973 17.4281C30.3458 20.3436 30.3206 26.4389 26.658 27.8886C18.1275 31.2652 20.9239 17.3651 19.9715 17.3651C19.4942 17.3651 15.1174 25.3738 13.8865 26.5023C11.207 28.9589 9.80112 28.0514 7.8368 24.99C5.23098 20.9287 4.37985 16.8566 2.7777 12.576" stroke="#1E1E1E" stroke-width="3" stroke-linecap="round" stroke-linejoin="round"/>
</svg>
