<svg width="44" height="41" viewBox="0 0 44 41" fill="none" xmlns="http://www.w3.org/2000/svg">
<path d="M41.9946 31.3787L34.701 31.3787M42.4976 10.6872L32.1854 10.6872M36.461 31.3786C35.0358 31.562 33.6112 31.7249 32.1852 31.8721C31.4078 35.7442 30.4754 36.5204 28.3291 37.2916C25.1836 38.4217 21.8368 38.605 18.6462 38.961C14.8629 39.3831 11.2937 39.0721 7.53818 38.2768M31.9343 13.1509C31.92 10.2947 32.3242 4.91824 31.3475 2.47744C30.8145 1.14554 29.6826 1.51503 29.0281 1.6564C26.4377 2.21586 23.8584 3.33025 21.2734 4.01004C14.7075 5.73671 8.12575 6.74683 1.50242 6.74683M22.1256 3.29859C21.7317 13.0562 21.1276 22.9621 21.3292 32.7738C21.3933 35.8953 21.4607 35.346 21.8741 37.2895M2.57967 6.73136C4.10642 11.217 3.10437 20.8987 3.10437 26.2585L3.10437 36.5359M40.3273 12.7374C40.3273 11.5101 41.0927 13.1854 40.9854 14.0261C40.6924 16.3208 38.9619 20.4317 39.4117 22.8225C39.9133 25.4886 39.8123 27.9972 39.8123 30.8906" stroke="#1E1E1E" stroke-width="3" stroke-linecap="round" stroke-linejoin="round"/>
</svg>
