<svg width="24" height="20" viewBox="0 0 24 20" fill="none" xmlns="http://www.w3.org/2000/svg">
<path d="M2.82533 14.3837C2.82533 10.8027 1.52982 7.45112 1.52982 3.87152C1.52982 -1.05107 8.07615 2.85841 9.15895 5.85857C10.0519 8.3326 9.95066 10.6617 9.95066 13.2299C9.95066 14.764 11.0792 14.3837 12.5417 14.3837C15.2289 14.3837 14.485 12.58 14.485 10.6018C14.485 9.72681 14.7237 4.39098 15.4926 3.99972C16.7447 3.36252 16.0929 1.93171 17.7237 1.72422C19.2675 1.52781 20.4745 1.5926 21.2864 2.87799C22.5637 4.90037 22.6873 8.32309 22.2221 10.6018C21.4583 14.3429 20.1148 17.2638 15.7805 18.4219" stroke="#1E1E1E" stroke-width="3" stroke-linecap="round" stroke-linejoin="round"/>
</svg>
