<svg width="31" height="29" viewBox="0 0 31 29" fill="none" xmlns="http://www.w3.org/2000/svg">
<path d="M1.59817 8.97528C1.16637 8.74454 2.95234 6.52064 3.14825 6.118C3.56829 5.25474 4.13727 2.00064 5.20301 1.6555C8.4339 0.609175 13.7936 13.372 18.3967 10.9657C19.3528 10.4659 18.7218 0.307655 20.4515 1.6555C22.0781 2.92308 24.4648 10.6665 25.7506 10.7089C28.8804 10.8121 31.1584 9.95875 26.6157 12.6994C25.2479 13.5246 21.2454 15.1831 22.9388 17.194C25.1289 19.7946 29.1092 20.9393 23.804 22.5875C20.5509 23.5981 17.6464 24.8736 14.6477 26.3758C12.9725 27.215 12.7231 27.1374 14.5756 27.4673" stroke="#1E1E1E" stroke-width="3" stroke-linecap="round" stroke-linejoin="round"/>
</svg>
