<svg width="42" height="80" viewBox="0 0 42 80" fill="none" xmlns="http://www.w3.org/2000/svg">
<path d="M39.7991 9.84462C28.7616 9.84462 17.7469 8.9187 6.70869 8.9187M39.7992 12.6199C38.991 16.5054 37.5521 18.6875 35.6235 20.3874C34.5775 21.3093 33.654 22.724 35.3346 23.9368C35.8353 24.2981 41.2407 27.6549 40.4032 28.4121C39.2174 29.4841 38.1009 30.6202 36.9628 31.8586C35.8431 33.077 43.7891 36.7774 37.278 40.6034C36.4022 41.118 35.6844 41.7839 34.8881 42.6096C34.6019 42.9064 33.6994 42.8749 33.9689 43.2268C35.6105 45.3704 37.9925 46.7891 38.7224 50.84C39.6576 56.0298 32.0764 51.2029 38.3022 59.7391C40.0666 62.1583 37.3576 61.6778 36.2275 62.1054C32.8862 63.3697 29.5212 63.7982 26.1691 64.9346C21.1794 66.6261 16.3649 68.0379 11.4622 70.4387C8.33761 71.9687 4.72797 72.8049 1.50881 72.8049M33.1815 1.50847L14.0625 1.50847C10.6353 1.50847 7.26584 3.36032 3.87279 3.36032M32.2358 2.43626L32.2358 9.84364M32.7081 62.6194C32.7081 64.241 33.1021 67.952 32.2354 68.8951C29.9145 71.4207 26.4845 70.9527 23.9365 70.9527C20.1627 70.9527 17.6012 71.5125 14.0619 74.142C12.2857 75.4617 9.61855 76.412 8.12666 78.3601" stroke="#1E1E1E" stroke-width="3" stroke-linecap="round" stroke-linejoin="round"/>
</svg>
