<svg width="59" height="30" viewBox="0 0 59 30" fill="none" xmlns="http://www.w3.org/2000/svg">
<path d="M1.5042 6.90462C1.70179 5.32093 5.20836 5.40585 6.45715 5.17171C11.0451 4.3115 15.3449 3.15863 19.8301 2.05247C24.1453 0.988242 29.6686 1.80041 34.0522 1.80041C38.9108 1.80041 43.7694 1.80041 48.628 1.80041C57.907 1.80041 59.6574 19.1578 55.0314 23.7926C53.3198 25.5075 49.2048 23.8946 48.3096 22.1227C47.2714 20.068 46.5965 17.8296 45.9392 15.6637C45.1593 13.0936 43.2659 19.0616 42.8967 19.8227C42.5107 20.6182 39.9608 29.4521 37.8022 27.6365C36.5738 26.6033 34.6182 23.3771 34.6182 21.9337C34.6182 19.8508 31.5482 12.5803 30.7974 17.4281C30.3458 20.3435 30.3207 26.4389 26.6581 27.8886C18.1276 31.2651 20.924 17.3651 19.9716 17.3651C19.4943 17.3651 15.1175 25.3738 13.8866 26.5023C11.207 28.9588 9.80123 28.0514 7.8369 24.9899C5.2311 20.9287 4.37997 16.8565 2.77782 12.576" stroke="#1E1E1E" stroke-width="3" stroke-linecap="round" stroke-linejoin="round"/>
</svg>
