<svg width="53" height="68" viewBox="0 0 53 68" fill="none" xmlns="http://www.w3.org/2000/svg">
<path d="M12.4765 30.4776C9.07245 30.4776 4.48055 31.347 3.34947 27.6199C2.27117 24.0667 0.512807 19.7873 2.24425 16.1893C3.51332 13.5521 4.97741 10.474 8.733 10.474C12.0071 10.474 15.6615 10.0514 18.787 11.0455C20.9532 11.7345 22.1027 12.708 22.1027 10.347C22.1027 6.595 21.82 4.85619 25.7392 2.91709C29.0038 1.30185 38.3948 0.649386 41.0341 3.36161C42.9283 5.30804 44.9807 10.8623 42.1394 12.7601C40.4036 13.9195 41.6375 13.8081 42.995 14.0302C45.0012 14.3583 47.2962 15.1936 48.7351 16.4751C50.9909 18.4841 51.5757 19.6807 50.9099 22.7937C49.8545 27.7283 43.7849 29.6911 40.7133 33.2082C39.2829 34.8461 35.6637 35.1239 33.6541 36.0659C32.6174 36.5518 33.1292 37.6393 34.2958 36.7644C35.8213 35.6203 39.8891 35.7225 41.8541 35.4308C43.1657 35.2362 42.9443 40.7246 42.2463 41.6224C40.78 43.5087 38.0498 44.4127 36.328 46.0994C32.9961 49.3635 32.9184 43.8768 30.9445 43.8768C29.1571 43.8768 26.6747 48.9543 26.0958 50.1001C25.4279 51.4218 25.4576 52.6109 24.9905 53.9421C24.2959 55.9217 22.9621 57.578 22.4592 59.6256C21.8904 61.9414 22.1925 64.2038 21.4609 66.484" stroke="#1E1E1E" stroke-width="3" stroke-linecap="round" stroke-linejoin="round"/>
</svg>
