<svg width="31" height="29" viewBox="0 0 31 29" fill="none" xmlns="http://www.w3.org/2000/svg">
<path d="M1.5981 8.9752C1.1663 8.74447 2.95225 6.52058 3.14816 6.11794C3.56819 5.2547 4.13718 2.00062 5.2029 1.65549C8.43377 0.609169 13.7934 13.3719 18.3965 10.9656C19.3526 10.4658 18.7216 0.307652 20.4512 1.65549C22.0778 2.92306 24.4645 10.6664 25.7503 10.7088C28.8801 10.8121 31.1581 9.95867 26.6154 12.6993C25.2476 13.5245 21.2451 15.183 22.9385 17.1938C25.1286 19.7944 29.1089 20.9391 23.8037 22.5873C20.5507 23.5979 17.6462 24.8733 14.6475 26.3756C12.9723 27.2147 12.7229 27.1371 14.5754 27.4671" stroke="#1E1E1E" stroke-width="3" stroke-linecap="round" stroke-linejoin="round"/>
</svg>
