<svg width="32" height="47" viewBox="0 0 32 47" fill="none" xmlns="http://www.w3.org/2000/svg">
<path d="M29.0265 15.4934C31.082 19.9668 31.4393 33.8271 27.0787 34.5698C24.8552 34.9485 22.7704 33.298 20.5858 33.298C18.2783 33.298 19.1452 37.9034 17.9526 40.434C16.0509 44.4694 16.2464 44.7439 13.3715 44.7439C12.5858 44.7439 7.10143 45.9793 6.95084 43.4721C6.54325 36.6862 7.60013 30.3017 7.60013 23.6892C7.60013 12.8474 8.38895 1.504 15.3915 1.504C18.5782 1.504 15.0254 11.2741 17.3755 12.8086C20.6568 14.951 25.4838 10.4063 29.0265 10.4063M7.60045 2.56303C-0.780426 2.56303 1.69224 18.5755 2.3701 32.6251C2.91593 43.9379 5.95177 39.393 9.54831 39.393" stroke="#1E1E1E" stroke-width="3" stroke-linecap="round" stroke-linejoin="round"/>
</svg>
