<svg width="53" height="68" viewBox="0 0 53 68" fill="none" xmlns="http://www.w3.org/2000/svg">
<path d="M12.4766 30.4776C9.07252 30.4776 4.48062 31.347 3.34953 27.6199C2.27123 24.0667 0.512868 19.7873 2.24431 16.1893C3.51338 13.5521 4.97747 10.474 8.73306 10.474C12.0071 10.474 15.6616 10.0514 18.7871 11.0455C20.9533 11.7345 22.1027 12.708 22.1027 10.347C22.1027 6.595 21.8201 4.85619 25.7393 2.91709C29.0039 1.30185 38.3948 0.649386 41.0342 3.36161C42.9283 5.30804 44.9807 10.8623 42.1394 12.7601C40.4036 13.9195 41.6376 13.8081 42.9951 14.0302C45.0012 14.3583 47.2963 15.1936 48.7351 16.4751C50.9909 18.4841 51.5757 19.6807 50.9099 22.7937C49.8545 27.7283 43.785 29.6911 40.7133 33.2082C39.2829 34.8461 35.6638 35.1239 33.6541 36.0659C32.6174 36.5518 33.1293 37.6393 34.2959 36.7644C35.8214 35.6203 39.8892 35.7225 41.8542 35.4308C43.1658 35.2362 42.9443 40.7246 42.2464 41.6224C40.7801 43.5087 38.0499 44.4127 36.3281 46.0994C32.9962 49.3635 32.9185 43.8768 30.9445 43.8768C29.1572 43.8768 26.6748 48.9543 26.0958 50.1001C25.428 51.4218 25.4577 52.6109 24.9906 53.9421C24.296 55.9217 22.9622 57.578 22.4593 59.6256C21.8905 61.9414 22.1925 64.2038 21.461 66.484" stroke="#1E1E1E" stroke-width="3" stroke-linecap="round" stroke-linejoin="round"/>
</svg>
