<svg width="59" height="30" viewBox="0 0 59 30" fill="none" xmlns="http://www.w3.org/2000/svg">
<path d="M1.50414 6.90464C1.70173 5.32094 5.20831 5.40586 6.4571 5.17172C11.0451 4.31151 15.3449 3.15864 19.8301 2.05248C24.1453 0.988244 29.6686 1.80042 34.0522 1.80042C38.9108 1.80042 43.7694 1.80042 48.628 1.80042C57.907 1.80042 59.6574 19.1579 55.0315 23.7927C53.3199 25.5076 49.2049 23.8946 48.3096 22.1228C47.2714 20.0681 46.5966 17.8297 45.9393 15.6637C45.1593 13.0936 43.266 19.0617 42.8967 19.8227C42.5107 20.6183 39.9608 29.4522 37.8023 27.6366C36.5738 26.6033 34.6182 23.3772 34.6182 21.9337C34.6182 19.8508 31.5482 12.5803 30.7974 17.4281C30.3458 20.3436 30.3207 26.4389 26.6581 27.8886C18.1276 31.2652 20.9239 17.3651 19.9716 17.3651C19.4942 17.3651 15.1174 25.3738 13.8865 26.5023C11.207 28.9589 9.80119 28.0514 7.83686 24.99C5.23105 20.9287 4.37992 16.8566 2.77776 12.576" stroke="#1E1E1E" stroke-width="3" stroke-linecap="round" stroke-linejoin="round"/>
</svg>
